<svg width="12" height="12" viewBox="0 0 12 12" fill="none" xmlns="http://www.w3.org/2000/svg">
<path d="M7.8 8H8.7C8.85 8 9 7.8 9 7.6V3.4C9 3.2 8.85 3 8.7 3H7.8C7.65 3 7.5 3.2 7.5 3.4V7.6C7.5 7.8 7.65 8 7.8 8ZM10.05 8H10.95C11.1 8 11.25 7.8 11.25 7.6V0.4C11.25 0.2 11.1 0 10.95 0H10.05C9.9 0 9.75 0.2 9.75 0.4V7.6C9.75 7.8 9.9 8 10.05 8ZM3.3 8H4.2C4.35 8 4.5 7.8 4.5 7.6V5.4C4.5 5.2 4.35 5 4.2 5H3.3C3.15 5 3 5.2 3 5.4V7.6C3 7.8 3.15 8 3.3 8ZM5.55 8H6.45C6.6 8 6.75 7.8 6.75 7.6V1.4C6.75 1.2 6.6 1 6.45 1H5.55C5.4 1 5.25 1.2 5.25 1.4V7.6C5.25 7.8 5.4 8 5.55 8ZM11.625 10H1.5V0.5C1.5 0.22375 1.33219 0 1.125 0H0.375C0.167812 0 0 0.22375 0 0.5V11C0 11.5522 0.335859 12 0.75 12H11.625C11.8322 12 12 11.7762 12 11.5V10.5C12 10.2238 11.8322 10 11.625 10Z" fill="#4C9FFF"/>
</svg>
