<svg width="36" height="36" viewBox="0 0 36 36" fill="none" xmlns="http://www.w3.org/2000/svg">
<path d="M8.25 6.60062C11.1069 9.04645 13.0335 12.5476 13.4259 16.5H16.5V3.07406C16.9934 3.02508 17.4938 3 18 3C18.5062 3 19.0066 3.02508 19.5 3.07406V16.5H22.5741C22.9665 12.5476 24.8931 9.04645 27.75 6.60062C28.5125 7.25342 29.2088 7.9814 29.8273 8.77307C27.5452 10.6728 25.979 13.4032 25.5928 16.5H32.9259C32.9749 16.9934 33 17.4938 33 18C33 18.5062 32.9749 19.0066 32.9259 19.5H25.5928C25.979 22.5968 27.5452 25.3272 29.8272 27.2269C29.2088 28.0186 28.5125 28.7466 27.75 29.3994C24.8931 26.9536 22.9665 23.4524 22.5741 19.5H19.5V32.9259C19.0066 32.9749 18.5062 33 18 33C17.4938 33 16.9934 32.9749 16.5 32.9259V19.5H13.4259C13.0335 23.4524 11.1069 26.9536 8.25 29.3994C7.48749 28.7466 6.79124 28.0186 6.17275 27.2269C8.4548 25.3272 10.021 22.5968 10.4072 19.5H3.07406C3.02508 19.0066 3 18.5062 3 18C3 17.4938 3.02508 16.9934 3.07406 16.5H10.4072C10.021 13.4032 8.45481 10.6728 6.17275 8.77307C6.79124 7.9814 7.48749 7.25342 8.25 6.60062Z" fill="white"/>
<path fill-rule="evenodd" clip-rule="evenodd" d="M18 30C24.6274 30 30 24.6274 30 18C30 11.3726 24.6274 6 18 6C11.3726 6 6 11.3726 6 18C6 24.6274 11.3726 30 18 30ZM18 33C26.2843 33 33 26.2843 33 18C33 9.71573 26.2843 3 18 3C9.71573 3 3 9.71573 3 18C3 26.2843 9.71573 33 18 33Z" fill="white"/>
</svg>
