<svg width="36" height="36" viewBox="0 0 36 36" fill="none" xmlns="http://www.w3.org/2000/svg">
<path d="M14.5047 17.7825L14.4147 17.9625C14.0397 18.69 13.4472 19.2825 12.7197 19.6575L12.5397 19.7475C11.8272 20.1075 11.8272 21.1275 12.5397 21.495L12.7197 21.585C13.4472 21.96 14.0397 22.5525 14.4147 23.28L14.5047 23.46C14.8647 24.1725 15.8847 24.1725 16.2522 23.46L16.3422 23.28C16.7172 22.5525 17.3097 21.96 18.0372 21.585L18.2172 21.495C18.9297 21.135 18.9297 20.115 18.2172 19.7475L18.0372 19.6575C17.3097 19.2825 16.7172 18.69 16.3422 17.9625L16.2522 17.7825C15.8922 17.07 14.8722 17.07 14.5047 17.7825Z" fill="white"/>
<path d="M26.2497 17.625C25.6272 17.625 25.1247 18.1275 25.1247 18.75V23.13C25.1247 24.2325 24.2322 25.125 23.1297 25.125H12.8622C11.7597 25.125 10.8672 24.2325 10.8672 23.13V12.8625C10.8672 11.76 11.7597 10.8675 12.8622 10.8675H17.2422C17.8647 10.8675 18.3672 10.365 18.3672 9.74251C18.3672 9.12001 17.8647 8.61751 17.2422 8.61751H12.8622C10.5222 8.61751 8.61719 10.5225 8.61719 12.8625V23.13C8.61719 25.47 10.5222 27.375 12.8622 27.375H23.1297C25.4697 27.375 27.3747 25.47 27.3747 23.13V18.75C27.3747 18.1275 26.8722 17.625 26.2497 17.625Z" fill="white"/>
<path d="M32.2497 13.83C32.6622 13.83 32.9997 13.4925 32.9997 13.08V12.33C32.9997 11.9175 32.6622 11.58 32.2497 11.58H30.2697C29.7747 8.58751 27.4122 6.22501 24.4197 5.73001V3.75001C24.4197 3.33751 24.0822 3.00001 23.6697 3.00001H22.9197C22.5072 3.00001 22.1697 3.33751 22.1697 3.75001V5.62501H20.8872V3.75001C20.8872 3.33751 20.5497 3.00001 20.1372 3.00001H19.3872C18.9747 3.00001 18.6372 3.33751 18.6372 3.75001V5.62501H17.3547V3.75001C17.3547 3.33751 17.0172 3.00001 16.6047 3.00001H15.8547C15.4422 3.00001 15.1047 3.33751 15.1047 3.75001V5.62501H13.8222V3.75001C13.8222 3.33751 13.4847 3.00001 13.0722 3.00001H12.3222C11.9097 3.00001 11.5722 3.33751 11.5722 3.75001V5.73001C8.57969 6.22501 6.21719 8.58751 5.72219 11.58H3.74219C3.32969 11.58 2.99219 11.9175 2.99219 12.33V13.08C2.99219 13.4925 3.32969 13.83 3.74219 13.83H5.61719V15.1125H3.74219C3.32969 15.1125 2.99219 15.45 2.99219 15.8625V16.6125C2.99219 17.025 3.32969 17.3625 3.74219 17.3625H5.61719V18.645H3.74219C3.32969 18.645 2.99219 18.9825 2.99219 19.395V20.145C2.99219 20.5575 3.32969 20.895 3.74219 20.895H5.61719V22.1775H3.74219C3.32969 22.1775 2.99219 22.515 2.99219 22.9275V23.6775C2.99219 24.09 3.32969 24.4275 3.74219 24.4275H5.72219C6.21719 27.42 8.57969 29.7825 11.5722 30.2775V32.2575C11.5722 32.67 11.9097 33.0075 12.3222 33.0075H13.0722C13.4847 33.0075 13.8222 32.67 13.8222 32.2575V30.3825H15.1047V32.2575C15.1047 32.67 15.4422 33.0075 15.8547 33.0075H16.6047C17.0172 33.0075 17.3547 32.67 17.3547 32.2575V30.3825H18.6372V32.2575C18.6372 32.67 18.9747 33.0075 19.3872 33.0075H20.1372C20.5497 33.0075 20.8872 32.67 20.8872 32.2575V30.3825H22.1697V32.2575C22.1697 32.67 22.5072 33.0075 22.9197 33.0075H23.6697C24.0822 33.0075 24.4197 32.67 24.4197 32.2575V30.2775C27.4122 29.7825 29.7747 27.42 30.2697 24.4275H32.2497C32.6622 24.4275 32.9997 24.09 32.9997 23.6775V22.9275C32.9997 22.515 32.6622 22.1775 32.2497 22.1775H30.3747V20.895H32.2497C32.6622 20.895 32.9997 20.5575 32.9997 20.145V19.395C32.9997 18.9825 32.6622 18.645 32.2497 18.645H30.3747V17.3625H32.2497C32.6622 17.3625 32.9997 17.025 32.9997 16.6125V15.8625C32.9997 15.45 32.6622 15.1125 32.2497 15.1125H30.3747V13.83H32.2497ZM28.1247 23.25C28.1247 25.935 25.9347 28.125 23.2497 28.125H12.7497C10.0647 28.125 7.87469 25.935 7.87469 23.25V12.75C7.87469 10.065 10.0647 7.87501 12.7497 7.87501H23.2497C25.9347 7.87501 28.1247 10.065 28.1247 12.75V23.25Z" fill="white"/>
<path d="M25.9347 12.165L25.6947 12.045C24.9447 11.6625 24.3447 11.0625 23.9622 10.3125L23.8422 10.0725C23.4297 9.26251 22.6047 8.76001 21.6972 8.76001C20.7897 8.76001 19.9647 9.26251 19.5447 10.0725L19.4247 10.3125C19.0422 11.0625 18.4422 11.6625 17.6922 12.045L17.4522 12.165C16.6422 12.5775 16.1397 13.4025 16.1397 14.31C16.1397 15.2175 16.6422 16.0425 17.4522 16.4625L17.6922 16.5825C18.4422 16.965 19.0422 17.565 19.4247 18.315L19.5447 18.555C19.9572 19.365 20.7822 19.8675 21.6972 19.8675C22.6122 19.8675 23.4297 19.365 23.8497 18.555L23.9697 18.315C24.3522 17.565 24.9522 16.965 25.7022 16.5825L25.9422 16.4625C26.7522 16.05 27.2547 15.225 27.2547 14.31C27.2547 13.395 26.7522 12.5775 25.9422 12.1575L25.9347 12.165ZM24.9147 14.46L24.6747 14.58C23.4972 15.18 22.5597 16.1175 21.9597 17.295L21.8397 17.535C21.8397 17.535 21.7947 17.625 21.6972 17.625C21.5997 17.625 21.5622 17.5575 21.5547 17.535L21.4347 17.295C20.8347 16.1175 19.8972 15.18 18.7197 14.58L18.4797 14.46C18.4797 14.46 18.3897 14.415 18.3897 14.3175C18.3897 14.22 18.4572 14.1825 18.4797 14.175L18.7197 14.055C19.8972 13.455 20.8347 12.5175 21.4347 11.34L21.5547 11.1C21.5547 11.1 21.5997 11.01 21.6972 11.01C21.7947 11.01 21.8322 11.07 21.8397 11.1L21.9597 11.34C22.5597 12.5175 23.4972 13.455 24.6747 14.055L24.9147 14.175C24.9147 14.175 25.0047 14.22 25.0047 14.3175C25.0047 14.415 24.9372 14.4525 24.9147 14.46Z" fill="white"/>
</svg>
