<svg width="37" height="28" viewBox="0 0 37 28" fill="none" xmlns="http://www.w3.org/2000/svg">
<path d="M7.76855 11.7315H14.9229M11.3457 8.15432V15.3086M23.8658 13.5201H23.8837M29.2315 9.9429H29.2494M15.7258 1H21.2741C25.969 1 28.3165 1 30.1589 1.88969C31.7811 2.67304 33.129 3.92807 34.026 5.49039C35.0448 7.26486 35.212 9.60631 35.5465 14.2891L35.9865 20.4499C36.2023 23.4706 33.8099 26.0401 30.7813 26.0401C29.2326 26.0401 27.764 25.3522 26.7726 24.1625L26.1015 23.3572C25.4878 22.6207 25.1807 22.2524 24.8314 21.9548C24.0988 21.3311 23.2121 20.9157 22.2639 20.7524C21.8116 20.6744 21.3323 20.6744 20.3734 20.6744H16.6267C15.6678 20.6744 15.1885 20.6744 14.7362 20.7524C13.788 20.9157 12.9012 21.3311 12.1687 21.9548C11.8192 22.2524 11.5123 22.6207 10.8986 23.3572L10.2276 24.1625C9.2361 25.3522 7.76739 26.0401 6.21867 26.0401C3.19021 26.0401 0.797757 23.4706 1.01353 20.4499L1.45359 14.2891C1.78808 9.60631 1.95533 7.26486 2.97403 5.49039C3.87097 3.92807 5.21882 2.67304 6.8411 1.88969C8.68362 1 11.031 1 15.7258 1Z" stroke="white" stroke-width="2" stroke-linecap="round" stroke-linejoin="round"/>
</svg>
