<svg width="35" height="35" viewBox="0 0 35 35" fill="none" xmlns="http://www.w3.org/2000/svg">
<path d="M5.82201 2.43056C5.82201 3.77291 4.7339 4.86111 3.39149 4.86111C2.04914 4.86111 0.960938 3.77291 0.960938 2.43056C0.960938 1.0882 2.04914 0 3.39149 0C4.7339 0 5.82201 1.0882 5.82201 2.43056Z" fill="white"/>
<path d="M7.76623 2.43061C7.76623 3.41376 7.44199 4.32116 6.89453 5.05169C9.45274 5.88022 12.018 6.91009 13.71 8.74847C13.8064 8.85327 13.9715 8.85882 14.0732 8.75907C14.8732 7.9738 15.7694 7.28722 16.7417 6.71818C16.873 6.64127 16.9059 6.46443 16.8055 6.35019C14.5213 3.75307 11.1964 2.63602 7.72335 1.81558C7.75164 2.01653 7.76623 2.22186 7.76623 2.43061Z" fill="white"/>
<path d="M4.5884 6.63951C4.20778 6.74762 3.80609 6.80547 3.39086 6.80547C2.52193 6.80547 1.71216 6.55221 1.03139 6.11539L0.0826205 16.9675L0.00246082 19.2414C-0.0689295 21.2626 1.42099 23.0012 3.42939 23.2402L3.60498 23.2611C5.14977 23.445 6.65545 22.6905 7.43293 21.343L9.56803 17.6426C9.67488 17.4574 9.50785 17.2345 9.30018 17.285L7.57517 17.704C7.55125 17.7098 7.52656 17.712 7.50196 17.7104L4.90982 17.5419L3.22788 17.3417C3.09163 17.3256 2.99581 17.1999 3.01626 17.0642L4.5884 6.63951Z" fill="white"/>
<path fill-rule="evenodd" clip-rule="evenodd" d="M24.4064 6.80554C18.2145 6.80554 13.1012 11.6427 12.7577 17.8251L12.4546 23.2794C12.4237 23.8366 12.8673 24.3055 13.4254 24.3055H34.4735C34.7579 24.3055 34.9815 24.0625 34.9579 23.7791L34.3841 16.8927C34.3211 16.1369 33.6892 15.5555 32.9308 15.5555H29.2108C29.1865 15.5555 29.166 15.5377 29.1627 15.5136L28.1861 8.48253C28.0526 7.52119 27.2307 6.80554 26.2601 6.80554H24.4064ZM24.8247 10.9039C24.8071 10.649 24.5948 10.4498 24.3397 10.4627C20.1918 10.673 16.8594 13.7552 16.6034 17.9822L16.5693 18.5449C16.5496 18.8712 16.8509 19.1236 17.1687 19.0469L22.8124 17.6835C23.1729 17.562 23.5538 17.4999 23.9379 17.4999H25.0192C25.16 17.4999 25.2714 17.3806 25.2616 17.2401L24.8247 10.9039Z" fill="white"/>
<path fill-rule="evenodd" clip-rule="evenodd" d="M10.6953 30.6249C10.6953 28.2087 12.654 26.2499 15.0703 26.2499H30.6259C33.0421 26.2499 35.0009 28.2087 35.0009 30.6249C35.0009 33.0412 33.0421 34.9999 30.6259 34.9999H15.0703C12.654 34.9999 10.6953 33.0412 10.6953 30.6249ZM18.4731 30.6249C18.4731 31.4303 17.8201 32.0833 17.0148 32.0833C16.2094 32.0833 15.5564 31.4303 15.5564 30.6249C15.5564 29.8196 16.2094 29.1666 17.0148 29.1666C17.8201 29.1666 18.4731 29.8196 18.4731 30.6249ZM22.8481 32.0833C23.6535 32.0833 24.3064 31.4303 24.3064 30.6249C24.3064 29.8196 23.6535 29.1666 22.8481 29.1666C22.0427 29.1666 21.3898 29.8196 21.3898 30.6249C21.3898 31.4303 22.0427 32.0833 22.8481 32.0833ZM30.1398 30.6249C30.1398 31.4303 29.4868 32.0833 28.6814 32.0833C27.876 32.0833 27.2231 31.4303 27.2231 30.6249C27.2231 29.8196 27.876 29.1666 28.6814 29.1666C29.4868 29.1666 30.1398 29.8196 30.1398 30.6249Z" fill="white"/>
</svg>
