<svg width="32" height="30" viewBox="0 0 32 30" fill="none" xmlns="http://www.w3.org/2000/svg">
<path d="M30.1886 29.265H1.80859C1.41077 29.265 1.02924 29.107 0.747934 28.8257C0.466629 28.5444 0.308594 28.1628 0.308594 27.765C0.308594 27.3672 0.466629 26.9857 0.747934 26.7043C1.02924 26.423 1.41077 26.265 1.80859 26.265H30.1886C30.5864 26.265 30.968 26.423 31.2493 26.7043C31.5306 26.9857 31.6886 27.3672 31.6886 27.765C31.6886 28.1628 31.5306 28.5444 31.2493 28.8257C30.968 29.107 30.5864 29.265 30.1886 29.265Z" fill="white"/>
<path d="M27.3689 29.265C26.9711 29.265 26.5895 29.107 26.3082 28.8257C26.0269 28.5444 25.8689 28.1629 25.8689 27.765V25.005H6.12891V27.765C6.12891 28.1629 5.97087 28.5444 5.68957 28.8257C5.40826 29.107 5.02673 29.265 4.62891 29.265C4.23108 29.265 3.84955 29.107 3.56825 28.8257C3.28694 28.5444 3.12891 28.1629 3.12891 27.765V23.505C3.12891 23.1072 3.28694 22.7257 3.56825 22.4444C3.84955 22.1631 4.23108 22.005 4.62891 22.005H27.3689C27.7667 22.005 28.1483 22.1631 28.4296 22.4444C28.7109 22.7257 28.8689 23.1072 28.8689 23.505V27.765C28.8689 28.1629 28.7109 28.5444 28.4296 28.8257C28.1483 29.107 27.7667 29.265 27.3689 29.265Z" fill="white"/>
<path d="M8.90234 20.76C8.50452 20.76 8.12299 20.602 7.84168 20.3207C7.56038 20.0394 7.40234 19.6579 7.40234 19.26V10.74C7.40234 10.3422 7.56038 9.96067 7.84168 9.67937C8.12299 9.39806 8.50452 9.24003 8.90234 9.24003C9.30017 9.24003 9.6817 9.39806 9.963 9.67937C10.2443 9.96067 10.4023 10.3422 10.4023 10.74V19.26C10.4023 19.6579 10.2443 20.0394 9.963 20.3207C9.6817 20.602 9.30017 20.76 8.90234 20.76Z" fill="white"/>
<path d="M16 20.76C15.6022 20.76 15.2206 20.602 14.9393 20.3207C14.658 20.0394 14.5 19.6578 14.5 19.26V7.90502C14.5 7.50719 14.658 7.12566 14.9393 6.84436C15.2206 6.56305 15.6022 6.40502 16 6.40502C16.3978 6.40502 16.7794 6.56305 17.0607 6.84436C17.342 7.12566 17.5 7.50719 17.5 7.90502V19.26C17.5 19.6578 17.342 20.0394 17.0607 20.3207C16.7794 20.602 16.3978 20.76 16 20.76Z" fill="white"/>
<path d="M23.0938 20.76C22.6959 20.76 22.3144 20.602 22.0331 20.3207C21.7518 20.0394 21.5938 19.6579 21.5938 19.26V10.74C21.5938 10.3422 21.7518 9.96067 22.0331 9.67937C22.3144 9.39806 22.6959 9.24003 23.0938 9.24003C23.4916 9.24003 23.8731 9.39806 24.1544 9.67937C24.4357 9.96067 24.5938 10.3422 24.5938 10.74V19.26C24.5938 19.6579 24.4357 20.0394 24.1544 20.3207C23.8731 20.602 23.4916 20.76 23.0938 20.76Z" fill="white"/>
<path d="M2.49873 10.83C2.2176 10.8306 1.94197 10.7521 1.70328 10.6036C1.46458 10.4551 1.27243 10.2425 1.14873 9.99003C0.971896 9.63394 0.94366 9.22222 1.07023 8.84532C1.1968 8.46843 1.46782 8.1572 1.82373 7.98003L15.9987 0.885028C16.2139 0.772031 16.4532 0.712994 16.6962 0.712994C16.9392 0.712994 17.1786 0.772031 17.3937 0.885028L30.1587 7.96503C30.5068 8.16394 30.7617 8.49299 30.8671 8.87978C30.9726 9.26657 30.9201 9.67943 30.7212 10.0275C30.5223 10.3756 30.1933 10.6304 29.8065 10.7359C29.4197 10.8414 29.0068 10.7889 28.6587 10.59L16.6587 3.88503L3.15873 10.62C2.95813 10.7406 2.7321 10.8125 2.49873 10.83Z" fill="white"/>
</svg>
