<svg width="12" height="12" viewBox="0 0 12 12" fill="none" xmlns="http://www.w3.org/2000/svg">
<rect width="12" height="12" fill="#BDBDBD"/>
<path d="M11 10.25H1V1.75H11V10.25Z" fill="black"/>
<path d="M7.875 2.75C7.39175 2.75 7 3.14175 7 3.625C7 4.10825 7.39175 4.5 7.875 4.5C8.35825 4.5 8.75 4.10825 8.75 3.625C8.75 3.14175 8.35825 2.75 7.875 2.75Z" fill="#4C9FFF"/>
<path d="M5.20375 4.47325L1 10.2025V10.25H9.44225H5.10275H9.5L5.20375 4.47325Z" fill="#4C9FFF"/>
<path d="M7.841 6.00225L4.75 10.215V10.25H10.9575H7.76675H11L7.841 6.00225Z" fill="#4C9FFF"/>
<path d="M9.5 10.25L7.096 7.0175L4.75 10.215V10.25H7.76675H9.5Z" fill="#2100C4"/>
</svg>
