<svg width="65" height="58" viewBox="0 0 65 58" fill="none" xmlns="http://www.w3.org/2000/svg">
<path d="M9.75 24.8571C13.3352 24.8571 16.25 21.1415 16.25 16.5714C16.25 12.0013 13.3352 8.28571 9.75 8.28571C6.16484 8.28571 3.25 12.0013 3.25 16.5714C3.25 21.1415 6.16484 24.8571 9.75 24.8571ZM55.25 24.8571C58.8352 24.8571 61.75 21.1415 61.75 16.5714C61.75 12.0013 58.8352 8.28571 55.25 8.28571C51.6648 8.28571 48.75 12.0013 48.75 16.5714C48.75 21.1415 51.6648 24.8571 55.25 24.8571ZM58.5 29H52C50.2125 29 48.5977 29.9192 47.4195 31.408C51.5125 34.2692 54.4172 39.4348 55.0469 45.5714H61.75C63.5477 45.5714 65 43.7201 65 41.4286V37.2857C65 32.7156 62.0852 29 58.5 29ZM32.5 29C38.7867 29 43.875 22.5138 43.875 14.5C43.875 6.48616 38.7867 0 32.5 0C26.2133 0 21.125 6.48616 21.125 14.5C21.125 22.5138 26.2133 29 32.5 29ZM40.3 33.1429H39.457C37.3445 34.4375 34.9984 35.2143 32.5 35.2143C30.0016 35.2143 27.6656 34.4375 25.543 33.1429H24.7C18.2406 33.1429 13 39.8232 13 48.0571V51.7857C13 55.2165 15.1836 58 17.875 58H47.125C49.8164 58 52 55.2165 52 51.7857V48.0571C52 39.8232 46.7594 33.1429 40.3 33.1429ZM17.5805 31.408C16.4023 29.9192 14.7875 29 13 29H6.5C2.91484 29 0 32.7156 0 37.2857V41.4286C0 43.7201 1.45234 45.5714 3.25 45.5714H9.94297C10.5828 39.4348 13.4875 34.2692 17.5805 31.408Z" fill="#4C9FFF"/>
</svg>
