<svg width="77" height="58" viewBox="0 0 77 58" fill="none" xmlns="http://www.w3.org/2000/svg">
<path d="M11.55 24.8571C15.797 24.8571 19.25 21.1415 19.25 16.5714C19.25 12.0013 15.797 8.28571 11.55 8.28571C7.30297 8.28571 3.85 12.0013 3.85 16.5714C3.85 21.1415 7.30297 24.8571 11.55 24.8571ZM65.45 24.8571C69.697 24.8571 73.15 21.1415 73.15 16.5714C73.15 12.0013 69.697 8.28571 65.45 8.28571C61.203 8.28571 57.75 12.0013 57.75 16.5714C57.75 21.1415 61.203 24.8571 65.45 24.8571ZM69.3 29H61.6C59.4825 29 57.5695 29.9192 56.1739 31.408C61.0225 34.2692 64.4634 39.4348 65.2094 45.5714H73.15C75.2795 45.5714 77 43.7201 77 41.4286V37.2857C77 32.7156 73.547 29 69.3 29ZM38.5 29C45.9473 29 51.975 22.5138 51.975 14.5C51.975 6.48616 45.9473 0 38.5 0C31.0527 0 25.025 6.48616 25.025 14.5C25.025 22.5138 31.0527 29 38.5 29ZM47.74 33.1429H46.7414C44.2389 34.4375 41.4597 35.2143 38.5 35.2143C35.5403 35.2143 32.7731 34.4375 30.2586 33.1429H29.26C21.6081 33.1429 15.4 39.8232 15.4 48.0571V51.7857C15.4 55.2165 17.9867 58 21.175 58H55.825C59.0133 58 61.6 55.2165 61.6 51.7857V48.0571C61.6 39.8232 55.3919 33.1429 47.74 33.1429ZM20.8261 31.408C19.4305 29.9192 17.5175 29 15.4 29H7.7C3.45297 29 0 32.7156 0 37.2857V41.4286C0 43.7201 1.72047 45.5714 3.85 45.5714H11.7786C12.5366 39.4348 15.9775 34.2692 20.8261 31.408Z" fill="#BBBBBB"/>
</svg>
