<svg width="58" height="58" viewBox="0 0 58 58" fill="none" xmlns="http://www.w3.org/2000/svg">
<path d="M34.4392 21.7479V25.3725C34.4392 26.1201 33.8274 26.7318 33.0797 26.7318H26.7357V33.0749C26.7357 33.8225 26.1239 34.4341 25.3762 34.4341H21.7511C21.0034 34.4341 20.3916 33.8225 20.3916 33.0749V26.7318H14.0476C13.2999 26.7318 12.6881 26.1201 12.6881 25.3725V21.7479C12.6881 21.0003 13.2999 20.3886 14.0476 20.3886H20.3916V14.0455C20.3916 13.2979 21.0034 12.6863 21.7511 12.6863H25.3762C26.1239 12.6863 26.7357 13.2979 26.7357 14.0455V20.3886H33.0797C33.8274 20.3886 34.4392 21.0003 34.4392 21.7479ZM57.2098 53.9959L54.0038 57.2014C52.9389 58.2662 51.2169 58.2662 50.1634 57.2014L38.8574 45.9084C38.3476 45.3987 38.0644 44.7077 38.0644 43.9828V42.1365C34.0653 45.2628 29.0354 47.1204 23.5637 47.1204C10.547 47.1204 0 36.5749 0 23.5602C0 10.5455 10.547 0 23.5637 0C36.5803 0 47.1273 10.5455 47.1273 23.5602C47.1273 29.0312 45.2694 34.0603 42.1427 38.0588H43.9893C44.7143 38.0588 45.4053 38.342 45.9151 38.8517L57.2098 50.1447C58.2634 51.2095 58.2634 52.9312 57.2098 53.9959ZM38.9707 23.5602C38.9707 15.0423 32.0828 8.15545 23.5637 8.15545C15.0445 8.15545 8.15665 15.0423 8.15665 23.5602C8.15665 32.0781 15.0445 38.9649 23.5637 38.9649C32.0828 38.9649 38.9707 32.0781 38.9707 23.5602Z" fill="#BBBBBB"/>
</svg>
