<svg width="58" height="58" viewBox="0 0 58 58" fill="none" xmlns="http://www.w3.org/2000/svg">
<path d="M56.3459 40.9849L43.6582 35.5473C43.1162 35.3163 42.5138 35.2676 41.9418 35.4086C41.3697 35.5495 40.8589 35.8725 40.4863 36.3289L34.8674 43.1939C26.0492 39.0361 18.9525 31.9395 14.7948 23.1212L21.6597 17.5024C22.117 17.1304 22.4407 16.6196 22.5818 16.0473C22.7228 15.475 22.6735 14.8723 22.4414 14.3304L17.0038 1.64271C16.7491 1.05863 16.2985 0.581753 15.7298 0.294301C15.1611 0.00684813 14.5099 -0.0731589 13.8885 0.0680756L2.10707 2.78687C1.50799 2.92521 0.973494 3.26253 0.590812 3.74376C0.20813 4.22499 -0.000138003 4.82173 6.86066e-08 5.43657C6.86066e-08 34.4937 23.5516 58 52.5634 58C53.1784 58.0004 53.7754 57.7922 54.2569 57.4095C54.7384 57.0268 55.0758 56.4922 55.2142 55.8929L57.933 44.1115C58.0734 43.4871 57.9917 42.8333 57.702 42.2626C57.4123 41.692 56.9328 41.2401 56.3459 40.9849Z" fill="#BBBBBB"/>
</svg>
