<svg width="60" height="58" viewBox="0 0 60 58" fill="none" xmlns="http://www.w3.org/2000/svg">
<path d="M58.2889 40.9849L45.1637 35.5473C44.603 35.3163 43.9798 35.2676 43.388 35.4086C42.7962 35.5495 42.2678 35.8725 41.8824 36.3289L36.0698 43.1939C26.9474 39.0362 19.606 31.9395 15.305 23.1212L22.4066 17.5024C22.8797 17.1304 23.2145 16.6196 23.3604 16.0473C23.5063 15.475 23.4554 14.8723 23.2152 14.3304L17.5901 1.64271C17.3266 1.05863 16.8605 0.581753 16.2722 0.294301C15.6839 0.00684814 15.0102 -0.0731589 14.3674 0.0680756L2.17973 2.78687C1.55999 2.92521 1.00706 3.26253 0.611185 3.74376C0.215307 4.22499 -0.000142761 4.82173 7.09724e-08 5.43657C7.09724e-08 34.4937 24.3637 58 54.3759 58C55.0122 58.0004 55.6298 57.7922 56.1278 57.4095C56.6259 57.0268 56.975 56.4922 57.1182 55.8929L59.9307 44.1115C60.0759 43.4871 59.9914 42.8333 59.6917 42.2626C59.392 41.692 58.896 41.2401 58.2889 40.9849Z" fill="#4C9FFF"/>
</svg>
