<svg width="40" height="40" viewBox="0 0 40 40" fill="none" xmlns="http://www.w3.org/2000/svg">
<path d="M11.6667 31.6667C15.3486 31.6667 18.3333 28.6819 18.3333 25C18.3333 21.3181 15.3486 18.3334 11.6667 18.3334C7.98477 18.3334 5 21.3181 5 25C5 28.6819 7.98477 31.6667 11.6667 31.6667Z" stroke="white" stroke-width="2" stroke-linecap="round" stroke-linejoin="round"/>
<path d="M11.668 25V25.0167" stroke="white" stroke-width="2" stroke-linecap="round" stroke-linejoin="round"/>
<path d="M31.6654 31.6667C33.5063 31.6667 34.9987 30.1743 34.9987 28.3333C34.9987 26.4924 33.5063 25 31.6654 25C29.8244 25 28.332 26.4924 28.332 28.3333C28.332 30.1743 29.8244 31.6667 31.6654 31.6667Z" stroke="white" stroke-width="2" stroke-linecap="round" stroke-linejoin="round"/>
<path d="M17.5 28.3333H28.3333" stroke="white" stroke-width="2" stroke-linecap="round" stroke-linejoin="round"/>
<path d="M33.332 25.3333V18.3333C33.332 17.8913 33.1564 17.4674 32.8439 17.1548C32.5313 16.8422 32.1074 16.6666 31.6654 16.6666H21.6654L18.332 8.33331H8.33203V19.1666" stroke="white" stroke-width="2" stroke-linecap="round" stroke-linejoin="round"/>
<path d="M30.0013 8.33331H28.3346C27.8926 8.33331 27.4687 8.50891 27.1561 8.82147C26.8436 9.13403 26.668 9.55795 26.668 9.99998V16.6666" stroke="white" stroke-width="2" stroke-linecap="round" stroke-linejoin="round"/>
</svg>
